<svg width="276" height="276" viewBox="0 0 276 276" fill="none" xmlns="http://www.w3.org/2000/svg">
<circle cx="138" cy="138" r="138" fill="#00CC33"/>
<path d="M205.791 132.831H70.8274V144.102H205.791V132.831Z" fill="white"/>
<path d="M105.088 200.802V211.237H61L106.542 143.406H125.091L138.31 163.164L151.391 143.406H170.217L214.513 211.237H171.324V200.802H195.687L160.527 147.859L138.31 181.67L115.885 147.719L80.6563 200.802H105.088Z" fill="white"/>
<path d="M61 65L106.542 132.831H125.091L138.31 113.073L151.391 132.831H170.217L214.513 65.0001H61V65ZM80.6566 75.4356H195.687L160.527 128.378L138.31 94.5675L115.885 128.518L80.6566 75.4356Z" fill="white"/>
</svg>
